<?xml version="1.0"?>
<svg xmlns="http://www.w3.org/2000/svg" xmlns:xlink="http://www.w3.org/1999/xlink" version="1.1" id="Capa_1" x="0px" y="0px" viewBox="0 0 480 480" style="enable-background:new 0 0 480 480;" xml:space="preserve" width="512px" height="512px"><g><g>
	<g>
		<g>
			<path d="M472,0H8C3.582,0,0,3.582,0,8v464c0,4.418,3.582,8,8,8h464c4.418,0,8-3.582,8-8V8C480,3.582,476.418,0,472,0z M464,464     H16V96h448V464z M464,80H16V16h448V80z" data-original="#000000" class="active-path" data-old_color="#000000" fill="#FFC32F"/>
			<path d="M56,448h368c13.255,0,24-10.745,24-24V136c0-13.255-10.745-24-24-24H56c-13.255,0-24,10.745-24,24v288     C32,437.255,42.745,448,56,448z M432,424c0,4.418-3.582,8-8,8H56c-4.418,0-8-3.582-8-8v-1.6c18.048,0.416,314.04,0.096,384-0.224     V424z M96,376v14.632c-6.813-2.441-12.169-7.813-14.592-14.632H96z M80,360v-56c0.012-10.168,6.418-19.229,16-22.632V360H80z      M120,360v-56c0.012-10.168,6.418-19.229,16-22.632V360H120z M136,376v14.632c-6.813-2.441-12.169-7.813-14.592-14.632H136z      M135.256,406.952c-9.728,0-18.952,0-27.496,0c2.59-1.355,4.221-4.029,4.24-6.952v-8.248     C117.683,399.439,125.935,404.832,135.256,406.952z M160,360v-56c0.012-10.168,6.418-19.229,16-22.632V304v56H160z M176,376     v14.632c-6.813-2.441-12.169-7.813-14.592-14.632H176z M175.2,406.952h-27.512c2.613-1.341,4.272-4.015,4.312-6.952v-8.248     C157.67,399.427,165.9,404.818,175.2,406.952z M192,360v-56c0.012-10.168,6.418-19.229,16-22.632V360H192z M208,376v14.632     c-6.813-2.441-12.169-7.813-14.592-14.632H208z M207.088,406.92h-19.344c2.585-1.347,4.22-4.005,4.256-6.92v-0.208     C196.466,403.212,201.61,405.642,207.088,406.92z M293.48,360c-13.344-27.901-1.542-61.337,26.359-74.68     c27.901-13.344,61.337-1.542,74.68,26.359c7.307,15.278,7.307,33.043,0,48.321H293.48z M383.08,376     c-21.712,21.332-56.512,21.332-78.224,0H383.08z M329.936,406.6c-37.096,0.128-74.752,0.232-110.12,0.296     c2.551-1.361,4.155-4.005,4.184-6.896v-24h60.176C294.785,391.848,311.237,402.85,329.936,406.6z M432,406.192     c-23.2,0.104-47.928,0.208-73.36,0.304c18.47-3.864,34.691-14.812,45.184-30.496H432V406.192z M432,360h-20.2     c13.365-37.334-6.065-78.434-43.398-91.799c-7.829-2.803-16.086-4.224-24.402-4.201c-39.654-0.111-71.89,31.945-72.001,71.598     c-0.023,8.316,1.398,16.572,4.201,24.402H224v-88c0-4.418-3.582-8-8-8c-8.684,0.029-17.117,2.914-24,8.208V272     c0-4.418-3.582-8-8-8c-12.64,0.035-24.513,6.064-32,16.248V272c0-4.418-3.582-8-8-8c-12.64,0.035-24.513,6.064-32,16.248V272     c0-4.418-3.582-8-8-8c-22.08,0.026-39.974,17.92-40,40v56H48V254.4c18.048,0.416,314.04,0.096,384-0.224V360z M96,208v14.632     c-6.813-2.441-12.169-7.813-14.592-14.632H96z M80,192v-8c0.012-10.168,6.418-19.229,16-22.632V192H80z M128,192v-8     c0.012-10.168,6.418-19.229,16-22.632V192H128z M144,208v14.632c-6.813-2.441-12.169-7.813-14.592-14.632H144z M143.256,238.976     c-12.72,0-24.64,0-35.504,0c2.601-1.357,4.236-4.043,4.248-6.976v-24h0.8C115.993,223.408,127.905,235.523,143.256,238.976z      M176,192v-8c0.012-10.168,6.418-19.229,16-22.632V192H176z M192,208v14.632c-6.813-2.441-12.169-7.813-14.592-14.632H192z      M191.2,238.944h-35.456c2.594-1.349,4.231-4.02,4.256-6.944v-24h0.8C163.994,223.381,175.878,235.478,191.2,238.944z      M268,238.792h0.016c-21.984,0.056-43.6,0.104-64.24,0.136c2.576-1.355,4.199-4.017,4.224-6.928v-24h56v24     C264.027,234.815,265.551,237.403,268,238.792z M312,208v16h-32v-16H312z M280,192v-8c0-4.418,3.582-8,8-8h16     c4.418,0,8,3.582,8,8v8H280z M346,237.296c0.504,0.487,1.072,0.905,1.688,1.24l-23.456,0.08c2.313-1.408,3.738-3.908,3.768-6.616     v-24h18.936l-2.872,23.008C343.778,233.285,344.483,235.575,346,237.296z M388.936,208l2,16h-29.872l2-16H388.936z M365.064,192     l2-16h17.872l2,16H365.064z M432,238.192l-27.376,0.12c0.496-0.285,0.958-0.626,1.376-1.016c1.517-1.721,2.222-4.011,1.936-6.288     L405.064,208H432V238.192z M48,136c0-4.418,3.582-8,8-8h368c4.418,0,8,3.582,8,8v56h-28.936l-3.128-24.992     c-0.5-4.003-3.902-7.007-7.936-7.008h-32c-4.034,0.001-7.436,3.005-7.936,7.008L348.936,192H328v-8c0-13.255-10.745-24-24-24h-16     c-13.255,0-24,10.745-24,24v8h-56v-40c0-4.418-3.582-8-8-8c-22.08,0.026-39.974,17.92-40,40v-32c0-4.418-3.582-8-8-8     c-22.08,0.026-39.974,17.92-40,40v-32c0-4.418-3.582-8-8-8c-22.08,0.026-39.974,17.92-40,40v8H48V136z M47.992,208H64.8     c3.18,15.32,14.985,27.388,30.232,30.904c-21.904-0.072-38.312-0.192-47.04-0.384V208z M48,376h16.8     c3.18,15.32,14.985,27.388,30.232,30.904c-21.904-0.072-38.312-0.192-47.04-0.384L48,376z" data-original="#000000" class="active-path" data-old_color="#000000" fill="#FFC32F"/>
			<path d="M344,296c-22.08,0.026-39.974,17.92-40,40c0,4.418,3.582,8,8,8s8-3.582,8-8c0-13.255,10.745-24,24-24     c4.418,0,8-3.582,8-8S348.418,296,344,296z" data-original="#000000" class="active-path" data-old_color="#000000" fill="#FFC32F"/>
			<path d="M272,72c13.255,0,24-10.745,24-24s-10.745-24-24-24s-24,10.745-24,24S258.745,72,272,72z M272,40c4.418,0,8,3.582,8,8     s-3.582,8-8,8s-8-3.582-8-8S267.582,40,272,40z" data-original="#000000" class="active-path" data-old_color="#000000" fill="#FFC32F"/>
			<path d="M352,56h16c4.418,0,8-3.582,8-8s-3.582-8-8-8h-16c-4.418,0-8,3.582-8,8S347.582,56,352,56z" data-original="#000000" class="active-path" data-old_color="#000000" fill="#FFC32F"/>
			<path d="M312,56h16c4.418,0,8-3.582,8-8s-3.582-8-8-8h-16c-4.418,0-8,3.582-8,8S307.582,56,312,56z" data-original="#000000" class="active-path" data-old_color="#000000" fill="#FFC32F"/>
			<path d="M88,56h16c4.418,0,8-3.582,8-8s-3.582-8-8-8H88c-4.418,0-8,3.582-8,8S83.582,56,88,56z" data-original="#000000" class="active-path" data-old_color="#000000" fill="#FFC32F"/>
			<path d="M128,56h16c4.418,0,8-3.582,8-8s-3.582-8-8-8h-16c-4.418,0-8,3.582-8,8S123.582,56,128,56z" data-original="#000000" class="active-path" data-old_color="#000000" fill="#FFC32F"/>
			<path d="M48,72c13.255,0,24-10.745,24-24S61.255,24,48,24S24,34.745,24,48S34.745,72,48,72z M48,40c4.418,0,8,3.582,8,8     s-3.582,8-8,8s-8-3.582-8-8S43.582,40,48,40z" data-original="#000000" class="active-path" data-old_color="#000000" fill="#FFC32F"/>
		</g>
	</g>
</g></g> </svg>
