<svg xmlns="http://www.w3.org/2000/svg" width="114" height="78" viewBox="0 0 114 78">
    <g fill="#4DA6AF" fill-rule="evenodd" opacity=".755">
        <path d="M72.831 66.74L80.58 78c33.85-17.56 33.256-53.53 33.256-53.53l-7.574-20.172A8.96 8.96 0 0 0 98.627 0h-31.73c-4.266 0-7.723 3.496-7.723 7.81v17.192c0 11.743 9.414 21.263 21.027 21.263h.378s5.448 8.305-7.748 20.475" opacity=".248"/>
        <path d="M13.742 66.74L21.537 78C55.597 60.44 55 24.47 55 24.47L47.38 4.299A9.027 9.027 0 0 0 39.696 0H7.77C3.48 0 0 3.496 0 7.81v17.192c0 11.743 9.472 21.263 21.157 21.263h.38s5.482 8.305-7.795 20.475" opacity=".204"/>
    </g>
</svg>
