<?xml version="1.0" encoding="UTF-8"?>
<svg width="51px" height="13px" viewBox="0 0 51 13" version="1.1" xmlns="http://www.w3.org/2000/svg" xmlns:xlink="http://www.w3.org/1999/xlink">
    <!-- Generator: Sketch 52.5 (67469) - http://www.bohemiancoding.com/sketch -->
    <title>mastak- copy 2</title>
    <desc>Created with Sketch.</desc>
    <g id="Symbols" stroke="none" stroke-width="1" fill="none" fill-rule="evenodd">
        <g id="Footer-Desktop" transform="translate(-1140.000000, -18.000000)" fill-rule="nonzero">
            <g id="mastak--copy-2" transform="translate(1140.000000, 18.000000)">
                <g id="Layer_6">
                    <g id="Group">
                        <path d="M49.5429055,9.84157862 C49.4772422,10.7655156 49.2351091,11.2233594 48.8124021,11.2233594 C48.6523479,11.2233594 48.5251254,11.1449897 48.4266306,10.9923751 C48.3281357,10.8356358 48.2296409,10.5510302 48.1229382,10.1385584 L47.1667174,6.10045884 L49.6824398,4.02572537 L49.7809347,3.54725801 L46.6783471,3.54725801 L46.4403179,4.67743091 L47.3801229,4.67743091 L44.6961385,6.83878347 L46.1284176,0.0206235931 L42.7426574,0.0206235931 L42.5046282,1.15079649 L44.0641299,1.15079649 L42.2830148,9.5940955 C42.2296635,9.61059438 42.1722081,9.61884382 42.1024409,9.61884382 C42.0285698,9.61884382 41.9588026,9.57347191 41.8931394,9.4827281 C41.8274762,9.39198429 41.7946446,9.24349442 41.7946446,9.03725849 C41.7946446,8.87639446 41.8151643,8.707281 41.8520999,8.5299181 L42.9314392,3.54725801 L41.076453,3.54725801 L40.8794633,4.47944442 C40.6619539,4.14121749 40.3787812,3.8772355 40.0217374,3.68749844 C39.6646936,3.49776139 39.2584024,3.40701758 38.7987598,3.40701758 C38.0108011,3.40701758 37.2967135,3.62562766 36.656497,4.0545984 C36.3199729,4.28145792 36.0203845,4.55368935 35.7577316,4.85891853 L32.745431,4.85891853 L33.3774395,1.89324585 L31.4526862,1.89324585 L30.8617171,4.85891853 L29.8685608,4.85891853 C29.8275213,4.29383208 29.6920909,3.62975238 29.3186313,3.15128502 C28.830261,2.52845251 27.9479114,2.19022559 26.8029088,2.19022559 C25.9698066,2.19022559 25.2187835,2.34696489 24.5498393,2.66456823 C23.8808952,2.97804684 23.3555894,3.40701758 22.9780258,3.94735572 C22.6004623,4.48769386 22.4075765,5.08165334 22.4075765,5.73335888 C22.4075765,6.17470377 22.5306951,6.53355429 22.7810361,6.80578572 C23.0272732,7.07801715 23.3268617,7.28012836 23.6798016,7.41211936 C24.0327414,7.54411035 24.496488,7.68022607 25.0751452,7.8204665 C25.5799312,7.9318339 25.9821185,8.0432013 26.281707,8.15044399 C26.5812955,8.25768667 26.8316365,8.41030126 27.0327301,8.60828775 C27.2338238,8.80627425 27.3364226,9.06613152 27.3364226,9.38373485 C27.3364226,9.8374539 27.1681606,10.2540505 26.8398444,10.641774 C26.5074243,11.0294976 25.8918316,11.2192346 24.9930661,11.2192346 C23.4581882,11.2192346 22.6907492,10.5510302 22.6907492,9.21462139 C22.6907492,8.9506394 22.7276848,8.63303607 22.8015559,8.25356195 L21.6770731,8.25356195 C21.6114099,8.6619091 21.5826822,9.0166349 21.5785783,9.32598879 C21.4964992,9.51160113 21.344653,9.60646966 21.1148317,9.60646966 C21.0409606,9.60646966 20.9711934,9.56109776 20.9055302,9.47035395 C20.839867,9.37961014 20.8070353,9.23112027 20.8070353,9.02488434 C20.8070353,8.86402031 20.8275551,8.69490685 20.8644907,8.51754395 L21.9561418,3.54313329 L20.1011556,3.54313329 L19.904166,4.4753197 C19.6866565,4.13709277 19.4034838,3.87311078 19.04644,3.68337373 C18.6893962,3.49363667 18.283105,3.40289286 17.8234624,3.40289286 C17.0355037,3.40289286 16.3214161,3.62150295 15.6811996,4.05047368 C15.0409831,4.48356914 14.5361971,5.06102974 14.1709454,5.77873078 C13.8056937,6.50055654 13.6251198,7.26362949 13.6251198,8.07207433 C13.6251198,8.22468892 13.6374316,8.36905407 13.6497435,8.50929451 L12.1764248,8.50929451 C12.1559051,8.83102256 12.1066576,9.09500455 12.0286826,9.30124048 C11.9507075,9.50747641 11.7865494,9.61059438 11.5444163,9.61059438 C11.4705451,9.61059438 11.4007779,9.56522247 11.3351147,9.47447866 C11.2694515,9.38373485 11.2366199,9.23524498 11.2366199,9.02900905 C11.2366199,8.86814503 11.2571396,8.69903156 11.2940752,8.52166866 L11.6018716,7.06976771 C11.7414059,6.40156329 11.8111731,5.83235213 11.8111731,5.3621342 C11.8111731,4.69392979 11.6716388,4.19896355 11.3884661,3.88136022 C11.1093974,3.55963217 10.6784824,3.40289286 10.0957213,3.40289286 C9.58272732,3.40289286 9.09435707,3.55550745 8.63471447,3.85661191 C8.17507188,4.15771637 7.78109251,4.58256238 7.45688032,5.12702524 C7.41994475,4.54543992 7.26399459,4.11234446 6.98492587,3.82773888 C6.7099611,3.54725801 6.29956593,3.40289286 5.7578443,3.40289286 C5.31872146,3.40289286 4.89601443,3.51426026 4.49382716,3.74111979 C4.09163989,3.96797931 3.72638818,4.28558264 3.39807204,4.70217922 L3.63610125,3.54313329 L0.25854896,3.54313329 L0.0205197587,4.67330619 L1.58002142,4.67330619 L0.0205197587,12.357657 L1.84677829,12.357657 L2.87276622,7.21413286 C2.98357292,6.68616888 3.14773099,6.22007568 3.35703253,5.80760381 C3.56633407,5.39925667 3.80436327,5.08165334 4.06701618,4.86304325 C4.32966909,4.64030844 4.592322,4.53306576 4.85497491,4.53306576 C5.35976098,4.53306576 5.61420599,4.90841515 5.61420599,5.66323866 C5.61420599,5.99321615 5.55264671,6.46343407 5.43363211,7.07389243 L4.68260894,10.6005268 L6.50886747,10.6005268 L7.22705902,7.21413286 C7.33786572,6.68616888 7.50202379,6.22007568 7.71132533,5.80760381 C7.92062687,5.39925667 8.15865607,5.08165334 8.42130898,4.86304325 C8.68396189,4.64030844 8.9466148,4.53306576 9.20926772,4.53306576 C9.71405378,4.53306576 9.96849879,4.90841515 9.96849879,5.66323866 C9.96849879,5.99321615 9.90693951,6.46343407 9.78792491,7.07389243 L9.5334799,8.24531252 C9.44729692,8.6412855 9.4062574,8.97951243 9.4062574,9.2599933 C9.4062574,9.81683031 9.54989571,10.2004291 9.84127628,10.4190392 C10.1326569,10.6335246 10.547156,10.744892 11.0929816,10.744892 C11.6470151,10.744892 12.0697221,10.6582729 12.3652066,10.4850347 C12.6606911,10.3117965 12.8617848,10.0684381 12.9766954,9.75083481 C12.9890073,9.71783706 12.9972152,9.6807146 13.009527,9.64359213 L14.035515,9.64359213 C14.1258019,9.78383256 14.2284007,9.91582356 14.3474153,10.0313157 C14.8193698,10.5056583 15.4636902,10.744892 16.2803766,10.744892 C16.7851626,10.744892 17.2735329,10.6335246 17.7413834,10.4066651 C18.2092339,10.1798055 18.6319409,9.87045165 19.0054005,9.47447866 C19.0423361,9.95294602 19.2023902,10.2870482 19.4814589,10.4685359 C19.7605277,10.6500235 20.158611,10.744892 20.6757089,10.744892 C21.1271436,10.744892 21.4923953,10.6871459 21.771464,10.5716538 C21.8781668,10.8975066 22.0218051,11.1491144 22.1695473,11.3842234 C22.5512148,11.990557 23.6346581,12.357657 24.9068831,12.357657 C25.7974407,12.357657 26.5853994,12.2009177 27.2789672,11.8833143 C27.9725351,11.5698357 28.5142567,11.1202414 28.9000282,10.5427808 C29.2899036,9.96532018 29.4827893,9.29711576 29.4827893,8.54641698 C29.4827893,8.03907659 29.3473589,7.63485416 29.0764981,7.33787442 C28.8056373,7.04089468 28.4773212,6.82640931 28.0915497,6.6902936 C27.7057782,6.55417788 27.213304,6.42631161 26.6018152,6.30257005 C26.1257568,6.19945208 25.7522972,6.10458355 25.4855403,6.01383974 C25.2187835,5.92309593 24.9930661,5.79935438 24.8124922,5.63849035 C24.6319184,5.47762632 24.5375275,5.26726567 24.5375275,5.00328368 C24.5375275,4.77642416 24.6031907,4.53719048 24.7345172,4.27733321 C24.8658436,4.01747593 25.0956649,3.79474113 25.4239811,3.60500407 C25.7522972,3.41526702 26.19142,3.32452321 26.7454535,3.32452321 C27.4267095,3.32452321 27.9479114,3.48951195 28.2967473,3.81948944 C28.6496871,4.14946693 28.8220531,4.61143541 28.8220531,5.20127018 C28.8220531,5.45700273 28.7933254,5.70861057 28.7358701,5.98909143 L30.6442077,5.98909143 L29.8316252,9.84157862 C29.765962,10.1344336 29.7331304,10.4025404 29.7331304,10.6458988 C29.7331304,11.1614886 29.8767687,11.5285885 30.1681493,11.7389492 C30.4595298,11.9493098 30.8658211,12.0565525 31.3911269,12.0565525 C31.9820959,12.0565525 32.4335306,11.961684 32.745431,11.7760717 C33.0573313,11.5863346 33.2748407,11.3264773 33.3979593,10.9923751 C33.5210779,10.6582729 33.590845,10.2210527 33.6072608,9.68483931 L32.6223124,9.68483931 C32.5771689,10.5139078 32.3596595,10.9263796 31.977992,10.9263796 C31.8836011,10.9263796 31.805626,10.8810077 31.7399628,10.7902639 C31.6742996,10.6995201 31.641468,10.5592797 31.641468,10.3612932 C31.641468,10.2499258 31.6660917,10.0725629 31.7112351,9.8374539 L32.5238176,5.98496671 L35.0641637,5.98496671 C34.7645752,6.64492169 34.612729,7.34199914 34.612729,8.07207433 C34.612729,8.90114278 34.8507582,9.55284832 35.3227127,10.027191 C35.7946671,10.5015336 36.4389875,10.7407673 37.2556739,10.7407673 C37.76046,10.7407673 38.2488303,10.6293999 38.7166808,10.4025404 C39.1845313,10.1756808 39.6072383,9.86632693 39.9806979,9.47035395 C40.0176335,9.94882131 40.1776876,10.2829235 40.4567563,10.4644111 C40.735825,10.6458988 41.1339083,10.7407673 41.6510063,10.7407673 C42.0572975,10.7407673 42.3897176,10.6912707 42.6564744,10.6005268 L43.9040758,10.6005268 L44.3678223,8.41442598 L45.6318394,7.37087217 L46.3048875,10.1385584 C46.4526298,10.7861392 46.5839563,11.2481077 46.6988669,11.5203391 C46.8096736,11.7925705 46.9861435,11.9988065 47.2241727,12.1431716 C47.4622019,12.283412 47.8274536,12.3535323 48.3117199,12.3535323 C49.0586392,12.3535323 49.6044647,12.1472963 49.9491967,11.7306997 C50.2898247,11.3182279 50.4868144,10.6871459 50.5319578,9.8374539 L49.5429055,9.8374539 L49.5429055,9.84157862 Z M19.387068,6.92952728 L19.3173009,7.2677542 C19.1490388,7.92770918 18.8535543,8.48042148 18.4267433,8.93414053 C17.9999324,9.38785957 17.5074581,9.61059438 16.9452168,9.61059438 C16.5225097,9.61059438 16.1941936,9.46622923 15.9602683,9.17337421 C15.7263431,8.88051918 15.6073285,8.47629676 15.6073285,7.96070693 C15.6073285,7.42449351 15.7099273,6.89240481 15.9151249,6.36031611 C16.1203225,5.82822741 16.4075991,5.39100723 16.7728508,5.04865559 C17.1381025,4.70630394 17.5526016,4.53306576 18.0245561,4.53306576 C18.4759908,4.53306576 18.8207227,4.68568035 19.0710638,4.99090953 C19.3173009,5.2961387 19.4445234,5.71686 19.4445234,6.25307342 C19.4404194,6.50880598 19.4240036,6.73154078 19.387068,6.92952728 Z M40.3664694,6.92952728 L40.2967022,7.2677542 C40.1284402,7.92770918 39.8329556,8.48042148 39.4061447,8.93414053 C38.9793337,9.38785957 38.4868595,9.61059438 37.9246181,9.61059438 C37.501911,9.61059438 37.1735949,9.46622923 36.9396697,9.17337421 C36.7057444,8.88051918 36.5867298,8.47629676 36.5867298,7.96070693 C36.5867298,7.42449351 36.6893286,6.89240481 36.8945262,6.36031611 C37.0997238,5.82822741 37.3870004,5.39100723 37.7522521,5.04865559 C38.1175038,4.70630394 38.5320029,4.53306576 39.0039574,4.53306576 C39.4553921,4.53306576 39.800124,4.68568035 40.0504651,4.99090953 C40.2967022,5.2961387 40.4239247,5.71686 40.4239247,6.25307342 C40.4239247,6.50880598 40.4034049,6.73154078 40.3664694,6.92952728 Z" id="Shape" fill="#000000"></path>
                        <path d="M37.842539,2.73056372 C37.8302272,2.73881316 37.7481481,2.59857273 37.7481481,2.59444801 C38.2939737,2.6356952 40.144856,0.560961732 40.144856,0.560961732 C40.3008061,0.424846018 40.4526523,0.346476364 40.5962907,0.317603334 C40.739929,0.288730303 40.8712554,0.313478615 40.9779582,0.383598831 C41.0887649,0.453719048 41.16674,0.573335888 41.2200913,0.734199914 C41.2939625,1.01055606 41.1995716,1.43540208 41.0148937,1.63338857 C40.3869891,2.30571771 39.4143526,2.65631879 37.842539,2.73056372 Z" id="Shape" fill="#E30613"></path>
                    </g>
                </g>
            </g>
        </g>
    </g>
</svg>