<?xml version="1.0"?>
<svg xmlns="http://www.w3.org/2000/svg" xmlns:xlink="http://www.w3.org/1999/xlink" version="1.1" id="Capa_1" x="0px" y="0px" viewBox="0 0 480.005 480.005" style="enable-background:new 0 0 480.005 480.005;" xml:space="preserve" width="512px" height="512px"><g><g>
	<g>
		<path d="M479.496,469.194l-24-64c-1.171-3.125-4.159-5.194-7.496-5.192h-32v-56c0-4.418-3.582-8-8-8v-248    c-0.057-48.577-39.423-87.943-88-88H200c-48.577,0.057-87.943,39.423-88,88v56h-8c-4.418,0-8,3.582-8,8v31.832    c-36.167,14.651-61.383,47.959-65.672,86.744l-6.04,54.4L1.6,355.203c-1.039,1.385-1.6,3.069-1.6,4.8v112c0,4.418,3.582,8,8,8h256    c4.418,0,8-3.582,8-8v-112c0-1.731-0.561-3.415-1.6-4.8l-22.688-30.256l-6.04-54.4c-4.3-38.773-29.515-72.066-65.672-86.712    v-31.832c0-4.418-3.582-8-8-8h-8v-64c0-17.673,14.327-32,32-32h136c17.673,0,32,14.327,32,32v256c-4.418,0-8,3.582-8,8v56h-32    c-3.337-0.002-6.325,2.067-7.496,5.192l-24,64c-1.551,4.137,0.546,8.748,4.683,10.299c0.899,0.337,1.852,0.51,2.813,0.509h176    c4.418,0.003,8.002-3.577,8.005-7.995C480.006,471.047,479.833,470.094,479.496,469.194z M128,128.003h16v16h-16V128.003z     M112,160.003h48v18.832c-15.777-3.776-32.223-3.776-48,0V160.003z M80,464.003H48v-32h32V464.003z M208,464.003H96v-40    c0-4.418-3.582-8-8-8H40c-4.418,0-8,3.582-8,8v40H16v-64h192V464.003z M256,464.003h-32v-64h32V464.003z M225.768,272.346    l6.28,56.536c0.157,1.422,0.693,2.776,1.552,3.92l22.4,29.864v21.336H16v-21.336l22.4-29.864c0.859-1.144,1.394-2.498,1.552-3.92    l6.28-56.536c5.506-49.577,50.161-85.304,99.738-79.798C187.958,197.212,221.104,230.358,225.768,272.346z M328,32.003H192    c-26.499,0.026-47.974,21.501-48,48v32h-16v-24c0.044-39.746,32.254-71.956,72-72h120c39.746,0.044,71.956,32.254,72,72h-16v-8    C375.974,53.504,354.499,32.029,328,32.003z M376,304.003v-200h16v200H376z M392,320.003v16h-16v-16H392z M307.544,464.003l18-48    h23.36l-4.488,13.472l15.2,5.056l8-24c0.263-0.817,0.392-1.67,0.384-2.528v-56h32v56c0.002,0.86,0.142,1.713,0.416,2.528l8,24    l15.2-5.056l-4.52-13.472h23.36l18,48H307.544z" data-original="#000000" class="active-path" data-old_color="#000000" fill="#FFC32F"/>
	</g>
</g><g>
	<g>
		<path d="M208,335.435l-4-56.144c-2.703-37.538-35.325-65.777-72.862-63.074c-33.776,2.432-60.641,29.298-63.074,63.074L64,335.435    c-0.314,4.407,3.005,8.234,7.412,8.548c0.196,0.014,0.392,0.021,0.588,0.02h128c4.418,0.011,8.009-3.562,8.02-7.98    C208.021,335.826,208.014,335.63,208,335.435z M113.472,328.003c4.335-12.442,17.935-19.014,30.376-14.68    c6.877,2.396,12.284,7.802,14.68,14.68H113.472z M175.2,328.003c-4.396-21.65-25.51-35.636-47.16-31.24    c-15.741,3.196-28.044,15.499-31.24,31.24H80.592L84,280.435c2.197-28.719,27.26-50.219,55.979-48.021    c25.664,1.964,46.057,22.357,48.021,48.021l3.408,47.568H175.2z" data-original="#000000" class="active-path" data-old_color="#000000" fill="#FFC32F"/>
	</g>
</g><g>
	<g>
		<rect x="112" y="432.003" width="16" height="16" data-original="#000000" class="active-path" data-old_color="#000000" fill="#FFC32F"/>
	</g>
</g><g>
	<g>
		<rect x="144" y="432.003" width="16" height="16" data-original="#000000" class="active-path" data-old_color="#000000" fill="#FFC32F"/>
	</g>
</g><g>
	<g>
		<rect x="176" y="432.003" width="16" height="16" data-original="#000000" class="active-path" data-old_color="#000000" fill="#FFC32F"/>
	</g>
</g></g> </svg>
