<?xml version="1.0"?>
<svg xmlns="http://www.w3.org/2000/svg" xmlns:xlink="http://www.w3.org/1999/xlink" version="1.1" id="Capa_1" x="0px" y="0px" viewBox="0 0 512 512" style="enable-background:new 0 0 512 512;" xml:space="preserve" width="512px" height="512px"><g><g>
	<g>
		<path d="M256,128c-92.296,0-167.385,75.089-167.385,167.385S163.704,462.769,256,462.769s167.385-75.089,167.385-167.385    S348.296,128,256,128z M256,443.077c-81.438,0-147.692-66.255-147.692-147.692S174.562,147.692,256,147.692    s147.692,66.255,147.692,147.692S337.438,443.077,256,443.077z" data-original="#000000" class="active-path" data-old_color="#000000" fill="#FFC32F"/>
	</g>
</g><g>
	<g>
		<path d="M256,167.385c-70.58,0-128,57.421-128,128c0,12.289,1.735,24.417,5.152,36.038c7.618,26.011,23.754,49.416,45.437,65.906    c16.81,12.784,36.07,21.048,56.558,24.382c6.829,1.111,13.794,1.674,20.852,1.674c5.292,0,10.534-0.317,15.706-0.944    c22.408-2.718,43.493-11.262,61.706-25.112c8.33-6.335,15.832-13.699,22.357-21.832c10.458-13.034,18.389-28.054,23.077-44.063    c3.42-11.631,5.154-23.76,5.154-36.049C384,224.805,326.58,167.385,256,167.385z M355.909,337.199    c-0.23,0.548-0.456,1.099-0.695,1.641c-0.345,0.783-0.706,1.555-1.068,2.327c-0.237,0.507-0.469,1.019-0.714,1.522    c-0.404,0.827-0.827,1.64-1.251,2.455c-0.225,0.434-0.442,0.874-0.673,1.305c-0.549,1.021-1.12,2.026-1.701,3.027    c-0.123,0.212-0.237,0.428-0.361,0.639c-0.714,1.21-1.45,2.403-2.209,3.582c-0.199,0.309-0.411,0.609-0.612,0.916    c-0.565,0.859-1.134,1.716-1.723,2.557c-0.296,0.423-0.607,0.836-0.909,1.255c-0.512,0.71-1.024,1.421-1.553,2.117    c-0.345,0.454-0.7,0.897-1.052,1.345c-0.507,0.646-1.014,1.292-1.535,1.926c-0.376,0.458-0.763,0.908-1.146,1.36    c-0.516,0.608-1.034,1.213-1.563,1.809c-0.401,0.452-0.809,0.897-1.218,1.341c-0.53,0.577-1.063,1.151-1.606,1.717    c-0.423,0.441-0.852,0.877-1.281,1.312c-0.547,0.552-1.1,1.099-1.659,1.639c-0.44,0.425-0.882,0.847-1.329,1.264    c-0.568,0.532-1.144,1.056-1.723,1.574c-0.454,0.407-0.909,0.812-1.369,1.211c-0.592,0.513-1.192,1.016-1.795,1.515    c-0.463,0.384-0.925,0.769-1.394,1.145c-0.623,0.5-1.256,0.987-1.889,1.473c-0.464,0.356-0.926,0.716-1.395,1.064    c-0.667,0.494-1.344,0.974-2.022,1.452c-0.451,0.319-0.898,0.645-1.354,0.957c-0.747,0.512-1.508,1.005-2.269,1.499    c-0.4,0.259-0.794,0.528-1.196,0.782c-1.026,0.647-2.066,1.273-3.113,1.886c-0.147,0.086-0.289,0.178-0.436,0.264    c-1.197,0.693-2.409,1.363-3.634,2.012c-0.377,0.2-0.763,0.385-1.143,0.581c-0.852,0.438-1.703,0.875-2.567,1.292    c-0.485,0.234-0.98,0.453-1.469,0.68c-0.769,0.356-1.539,0.715-2.317,1.054c-0.533,0.232-1.072,0.45-1.609,0.674    c-0.746,0.311-1.493,0.621-2.247,0.917c-0.562,0.22-1.128,0.427-1.695,0.638c-0.74,0.276-1.482,0.548-2.229,0.807    c-0.58,0.202-1.165,0.394-1.749,0.585c-0.744,0.244-1.49,0.483-2.24,0.711c-0.594,0.18-1.189,0.354-1.787,0.525    c-0.751,0.215-1.506,0.421-2.264,0.619c-0.603,0.158-1.206,0.312-1.812,0.459c-0.764,0.186-1.531,0.361-2.301,0.531    c-0.606,0.134-1.212,0.266-1.822,0.389c-0.781,0.158-1.567,0.302-2.352,0.443c-0.605,0.108-1.208,0.219-1.816,0.317    c-0.805,0.13-1.616,0.243-2.426,0.354c-0.594,0.082-1.186,0.169-1.783,0.241c-0.85,0.102-1.704,0.184-2.558,0.267    c-0.562,0.054-1.122,0.118-1.687,0.163c-0.951,0.077-1.907,0.128-2.863,0.179c-0.473,0.026-0.942,0.063-1.416,0.082    c-1.43,0.062-2.866,0.095-4.309,0.095s-2.879-0.032-4.312-0.09c-0.474-0.019-0.943-0.057-1.416-0.082    c-0.956-0.051-1.912-0.102-2.863-0.179c-0.563-0.045-1.122-0.108-1.684-0.162c-0.856-0.083-1.711-0.164-2.562-0.267    c-0.595-0.072-1.185-0.159-1.777-0.241c-0.811-0.112-1.624-0.224-2.43-0.355c-0.608-0.098-1.211-0.209-1.816-0.317    c-0.786-0.141-1.571-0.285-2.352-0.443c-0.609-0.123-1.215-0.256-1.821-0.389c-0.77-0.169-1.539-0.346-2.304-0.532    c-0.605-0.147-1.206-0.3-1.807-0.458c-0.76-0.199-1.517-0.407-2.272-0.622c-0.594-0.169-1.187-0.343-1.777-0.522    c-0.755-0.229-1.505-0.47-2.255-0.716c-0.579-0.19-1.158-0.38-1.733-0.58c-0.754-0.262-1.503-0.537-2.251-0.815    c-0.558-0.208-1.119-0.413-1.673-0.629c-0.764-0.298-1.52-0.613-2.276-0.929c-0.526-0.22-1.055-0.433-1.577-0.661    c-0.797-0.348-1.584-0.713-2.372-1.079c-0.471-0.219-0.944-0.428-1.412-0.654c-0.9-0.433-1.788-0.889-2.675-1.347    c-0.344-0.177-0.692-0.345-1.034-0.526c-1.232-0.653-2.453-1.326-3.658-2.025c-0.055-0.032-0.108-0.067-0.163-0.098    c-1.142-0.665-2.272-1.349-3.388-2.053c-0.358-0.227-0.708-0.465-1.063-0.695c-0.807-0.523-1.613-1.047-2.406-1.59    c-0.42-0.288-0.831-0.589-1.247-0.882c-0.716-0.505-1.431-1.011-2.134-1.533c-0.437-0.325-0.866-0.66-1.3-0.992    c-0.669-0.512-1.335-1.026-1.992-1.553c-0.437-0.352-0.868-0.711-1.301-1.069c-0.637-0.528-1.271-1.058-1.895-1.6    c-0.429-0.372-0.853-0.75-1.276-1.129c-0.613-0.548-1.222-1.103-1.823-1.665c-0.415-0.389-0.827-0.782-1.237-1.177    c-0.594-0.573-1.181-1.154-1.761-1.741c-0.397-0.401-0.793-0.803-1.183-1.211c-0.58-0.605-1.15-1.218-1.716-1.835    c-0.372-0.407-0.745-0.812-1.112-1.224c-0.572-0.644-1.132-1.298-1.689-1.955c-0.342-0.404-0.687-0.804-1.023-1.213    c-0.572-0.695-1.128-1.403-1.684-2.113c-0.302-0.387-0.61-0.769-0.908-1.161c-0.595-0.783-1.172-1.58-1.746-2.381    c-0.238-0.333-0.484-0.659-0.72-0.993c-0.698-0.996-1.376-2.009-2.041-3.031c-0.098-0.149-0.201-0.293-0.297-0.444    c-0.775-1.202-1.527-2.421-2.256-3.658c-0.012-0.021-0.024-0.042-0.035-0.063c-0.698-1.187-1.374-2.391-2.027-3.608    c-0.179-0.334-0.346-0.674-0.522-1.01c-0.477-0.911-0.949-1.823-1.401-2.75c-0.215-0.44-0.416-0.887-0.624-1.331    c-0.393-0.834-0.783-1.67-1.155-2.517c-0.219-0.498-0.425-1.002-0.637-1.505c-0.237-0.563-0.468-1.129-0.695-1.696l19.906-4.973    c13.864-3.471,28.357-2.914,41.914,1.611l8.804,2.935c19.307,6.429,40.576,6.429,59.885-0.001l8.805-2.935    c13.554-4.524,28.048-5.08,41.915-1.609l19.902,4.972C356.351,336.132,356.132,336.668,355.909,337.199z M362.194,316.706    l-20.75-5.184c-17.51-4.384-35.811-3.679-52.924,2.032l-8.799,2.933c-15.296,5.092-32.144,5.092-47.438,0.001l-8.799-2.933    c-17.12-5.713-35.422-6.416-52.923-2.034l-20.756,5.186c-1.392-6.975-2.113-14.111-2.113-21.323    c0-59.721,48.587-108.308,108.308-108.308s108.308,48.587,108.308,108.308C364.308,302.595,363.588,309.729,362.194,316.706z" data-original="#000000" class="active-path" data-old_color="#000000" fill="#FFC32F"/>
	</g>
</g><g>
	<g>
		<path d="M502.154,0H9.846C4.409,0,0,4.408,0,9.846v88.615v403.692C0,507.592,4.409,512,9.846,512h492.308    c5.437,0,9.846-4.408,9.846-9.846V98.462V9.846C512,4.408,507.591,0,502.154,0z M492.308,492.308H19.692v-19.692h39.385    c5.437,0,9.846-4.408,9.846-9.846s-4.409-9.846-9.846-9.846H19.692V108.308h472.615V492.308z M492.308,88.615H19.692V19.692    h472.615V88.615z" data-original="#000000" class="active-path" data-old_color="#000000" fill="#FFC32F"/>
	</g>
</g><g>
	<g>
		<path d="M98.265,460.849c-0.118-0.63-0.315-1.25-0.561-1.841c-0.246-0.601-0.551-1.172-0.906-1.703    c-0.354-0.542-0.767-1.044-1.221-1.497c-0.453-0.453-0.955-0.867-1.497-1.221c-0.532-0.354-1.103-0.66-1.703-0.906    c-0.591-0.246-1.21-0.443-1.84-0.561c-1.27-0.256-2.57-0.256-3.84,0c-0.63,0.118-1.25,0.315-1.851,0.561    c-0.592,0.246-1.162,0.551-1.694,0.906c-0.543,0.354-1.045,0.768-1.498,1.221c-0.453,0.453-0.866,0.955-1.221,1.497    c-0.364,0.532-0.66,1.103-0.906,1.703c-0.246,0.591-0.443,1.211-0.571,1.841s-0.187,1.28-0.187,1.92s0.059,1.29,0.186,1.92    c0.128,0.63,0.326,1.25,0.572,1.841c0.246,0.601,0.542,1.172,0.906,1.703c0.354,0.542,0.768,1.044,1.221,1.497    c0.453,0.453,0.955,0.866,1.498,1.221c0.532,0.354,1.102,0.66,1.694,0.906c0.601,0.246,1.221,0.443,1.851,0.561    c0.63,0.128,1.28,0.197,1.92,0.197c2.59,0,5.13-1.054,6.96-2.885c0.454-0.453,0.867-0.955,1.221-1.497    c0.354-0.532,0.66-1.103,0.906-1.703c0.246-0.591,0.443-1.211,0.561-1.841c0.128-0.63,0.197-1.28,0.197-1.92    C98.462,462.129,98.393,461.479,98.265,460.849z" data-original="#000000" class="active-path" data-old_color="#000000" fill="#FFC32F"/>
	</g>
</g><g>
	<g>
		<path d="M157.538,44.308H39.385c-5.437,0-9.846,4.408-9.846,9.846c0,5.438,4.409,9.846,9.846,9.846h118.154    c5.437,0,9.846-4.408,9.846-9.846C167.385,48.716,162.976,44.308,157.538,44.308z" data-original="#000000" class="active-path" data-old_color="#000000" fill="#FFC32F"/>
	</g>
</g><g>
	<g>
		<path d="M344.615,34.462c-10.858,0-19.692,8.834-19.692,19.692s8.834,19.692,19.692,19.692c10.858,0,19.692-8.834,19.692-19.692    S355.474,34.462,344.615,34.462z" data-original="#000000" class="active-path" data-old_color="#000000" fill="#FFC32F"/>
	</g>
</g><g>
	<g>
		<path d="M403.692,34.462c-10.858,0-19.692,8.834-19.692,19.692s8.834,19.692,19.692,19.692s19.692-8.834,19.692-19.692    S414.551,34.462,403.692,34.462z" data-original="#000000" class="active-path" data-old_color="#000000" fill="#FFC32F"/>
	</g>
</g></g> </svg>
