<?xml version="1.0"?>
<svg xmlns="http://www.w3.org/2000/svg" height="512px" viewBox="0 -48 480 480" width="512px"><g><path d="m0 352h16v32h144v-32h160v32h144v-32h16v-352h-480zm144 16h-112v-16h112zm304 0h-112v-16h112zm-432-352h448v320h-448zm0 0" data-original="#000000" class="active-path" data-old_color="#000000" fill="#FFC32F"/><path d="m352 32h-320v288h320zm-304 16h288v16h-288zm288 256h-288v-224h288zm0 0" data-original="#000000" class="active-path" data-old_color="#000000" fill="#FFC32F"/><path d="m408 320c22.089844 0 40-17.910156 40-40s-17.910156-40-40-40-40 17.910156-40 40c.027344 22.082031 17.917969 39.972656 40 40zm0-64c13.253906 0 24 10.746094 24 24s-10.746094 24-24 24-24-10.746094-24-24 10.746094-24 24-24zm0 0" data-original="#000000" class="active-path" data-old_color="#000000" fill="#FFC32F"/><path d="m392 80h32c13.253906 0 24-10.746094 24-24s-10.746094-24-24-24h-32c-13.253906 0-24 10.746094-24 24s10.746094 24 24 24zm0-32h32c4.417969 0 8 3.582031 8 8s-3.582031 8-8 8h-32c-4.417969 0-8-3.582031-8-8s3.582031-8 8-8zm0 0" data-original="#000000" class="active-path" data-old_color="#000000" fill="#FFC32F"/><path d="m392 144h32c13.253906 0 24-10.746094 24-24s-10.746094-24-24-24h-32c-13.253906 0-24 10.746094-24 24s10.746094 24 24 24zm0-32h32c4.417969 0 8 3.582031 8 8s-3.582031 8-8 8h-32c-4.417969 0-8-3.582031-8-8s3.582031-8 8-8zm0 0" data-original="#000000" class="active-path" data-old_color="#000000" fill="#FFC32F"/><path d="m392 208h32c13.253906 0 24-10.746094 24-24s-10.746094-24-24-24h-32c-13.253906 0-24 10.746094-24 24s10.746094 24 24 24zm0-32h32c4.417969 0 8 3.582031 8 8s-3.582031 8-8 8h-32c-4.417969 0-8-3.582031-8-8s3.582031-8 8-8zm0 0" data-original="#000000" class="active-path" data-old_color="#000000" fill="#FFC32F"/><path d="m66.347656 170.34375 72-72 11.3125 11.3125-72 72zm0 0" data-original="#000000" class="active-path" data-old_color="#000000" fill="#FFC32F"/><path d="m66.34375 218.339844 72-72 11.3125 11.316406-72 72zm0 0" data-original="#000000" class="active-path" data-old_color="#000000" fill="#FFC32F"/><path d="m64 272h256v16h-256zm0 0" data-original="#000000" class="active-path" data-old_color="#000000" fill="#FFC32F"/><path d="m304 96h16v16h-16zm0 0" data-original="#000000" class="active-path" data-old_color="#000000" fill="#FFC32F"/><path d="m280 120h16v16h-16zm0 0" data-original="#000000" class="active-path" data-old_color="#000000" fill="#FFC32F"/></g> </svg>
